<?xml version="1.0" encoding="UTF-8"?>
<svg width="926.08" height="1000.9" version="1.1" viewBox="0 0 926.08096 1000.859" xmlns="http://www.w3.org/2000/svg">
 <g transform="translate(-582.16 3.39)">
  <g transform="translate(964.96 -166)">
   <g transform="matrix(1.5855 0 0 1.47 -172.24 -76.426)">
    <rect x="-132.8" y="162.61" width="583.84" height="677.95" fill="#2c89a0"/>
    <path d="m297.2 462.5 154.08 186.76-0.43204 194.2-291.74-2.9225-162.91-204.26z" fill="#216778"/>
    <g transform="matrix(2.8671 .63744 -.54896 3.3293 -998.93 -1069.6)">
     <g transform="matrix(.81234 -.54857 .52795 .91993 12.192 203.24)">
      <path d="m371.45 429.33 3.7337-3.75 0.3556-8.5714-0.3556-11.964-3.2003-11.964-1.0668-1.4286-3.5559-10.714-3.7337-4.8214-5.3338-8.0357-6.4006-5.5357-9.4232-9.1071-9.7787-4.2857-14.401-1.25-4.0893-0.89286-2.3113-1.0714-11.557-0.35714-8.712 2.1428-12.09 5.8929-5.5116 6.25-5.6894 7.3214-3.5559 5-1.6002 2.3214 3.5559-1.6071 12.623-1.25 13.512 1.0714 18.491 6.0714 18.135 9.2857 10.846 6.6071 11.201 9.4643 12.09 14.464z" fill="#fccc0a"/>
      <path d="m369.9 430.23 5.6149-4.0094 0.76433-6.4492-0.25477-5.4174-3.8217-4.1275-3.3121-7.2231-7.8981-4.9014-5.0956-10.061-2.8026-8.513-7.1338-5.4174-6.1012-2.9246-9.9319-3.4079-8.4256-4.3094-27.261-4.3203-10.191 3.3536-12.994 5.6753-8.4077 6.1912-1.2739 2.0638 16.306-4.1275 15.796 1.5478 23.185 9.5449 21.911 10.835 16.051 12.898 11.465 15.478z" fill="#da331c"/>
      <path d="m249.11 393.97 1.7857-5.5357 3.5714-5.1786 6.9643-6.9643 6.25-3.3928 9.8214-1.0714 14.464 0.89285 18.393 6.0714 19.286 10 10 5.8929 12.321 10 8.3928 9.8214 7.8572 11.071 1.4286 2.5 0.89286 1.4286-1.0714 0.89286-3.3929-1.4286-20.357-5.8928-54.643-14.643-24.464-6.4286-9.8214-2.5-4.2857-1.9643-2.8571-0.89285z" fill="#eecd1a"/>
     </g>
     <g transform="translate(257.97,91.924)">
      <g transform="translate(-40.361,-213.78)">
       <path d="m273.01 482.51-0.64818-4.4194 9.3338 5.5558 0.38891 4.2932z" fill="#cf4629"/>
       <path d="m272.55 478.03c-1.9499 1.85-2.7021 5.1794-3.8512 7.8918l1.2627 5.3033 3.1567-9.0914z" fill="#d56240"/>
       <path d="m269.96 491.22 6.0609 3.283 5.0508-4.2932 1.0102-2.2728-9.0914-5.5558z" fill="#bb3121"/>
      </g>
      <path d="m213.5 286.86 4.375-0.98214 3.3036-1.875 4.7321-3.5714 3.3929-3.0357 1.9643-2.5 1.4286 2.8571-6.5179 5.9821-9.375 5.625-3.5714 1.875z" fill="#ffbe2c"/>
      <path d="m195.83 287.76-9.8214 8.75-5.5357 3.3036-4.9107 2.7678-2.5 1.4286 0.89286-2.0536 1.6071-1.7857 1.0714-0.625 0.80359-1.4286-0.80357-2.2321-1.1607-1.1607-1.3393-0.0893 2.1429-0.80357 1.3393-1.5179 1.5179-1.6071 0.98214-2.1429 0.26786-2.5893 0.0893-1.25 1.9643-1.4286 2.0536-2.1429 0.625-2.5893 0.35715-3.125-0.80358-4.2857 2.5 3.3036 1.875 0.71428 2.1429-0.26786 1.6071 0.0893 3.75-0.44643 5.4464-2.5893 5-3.0357 4.9107-2.6786-7.3214 7.8571-5.9821 8.2143z" fill="#aed311"/>
      <path d="m213.32 281.6 1.673 0.29471 5.4279-2.8701 2.7977-2.1946 0.73634-1.2045-0.53505-2.0479-1.927-2.3694 1.8735 1.8072 2.4761 0.38853 2.1482 0.22119 1.4858-0.48161 3.9556-2.8436 2.0818-3.4596 1.011-2.7905-4.2897-0.0743-8.9615 3.8868-3.1925 1.9202-1.2651 1.9071-0.13419 2.1683 0.40807 1.0106-5.0458-1.1652-2.9179 0.33416-1.372 0.78277-2.6973 1.7596-2.5832-0.32163-2.3224 0.92986-2.8178 2.2816 0.41451 2.5699 3.1449 2.6506 1.9541 0.268 4.0221-0.35405 2.8377-1.1774z" fill="#8c6000"/>
      <path d="m240.42 280.61 2.5254 3.4093 2.6516 0.88388 5.9346-0.12627 8.5863-1.5152 7.4499-2.7779-4.2932-1.1364-7.8287 1.5152-6.8185 0.37881-6.1872-0.50508z" fill="#ffbe2c"/>
      <path d="m194.17 288.49 5.0508-2.5254 6.8185-1.1364 6.6923-0.25253 7.4499 1.0102 2.5254 0.63134 5.6821-2.1466-5.9346-0.75761-7.4499-0.88389-8.46-0.75761-7.5761 0.75761-5.3033 2.0203-2.5254 2.5254 2.1466 1.7678z" fill="#ffbe2c"/>
      <path d="m240.42 280.61 2.5254 3.4093 2.6516 0.88388 5.9346-0.12627 8.5863-1.5152 7.4499-2.7779-4.2932-1.1364-7.8287 1.5152-6.8185 0.37881-6.1872-0.50508z" fill="#ffbe2c"/>
      <path d="m240.42 280.61 2.5254 3.4093 2.6516 0.88388 5.9346-0.12627 8.5863-1.5152 7.4499-2.7779-4.2932-1.1364-7.8287 1.5152-6.8185 0.37881-6.1872-0.50508z" fill="#ffbe2c"/>
      <path d="m240.42 280.61 2.5254 3.4093 2.6516 0.88388 5.9346-0.12627 8.5863-1.5152 7.4499-2.7779-4.2932-1.1364-7.8287 1.5152-6.8185 0.37881-6.1872-0.50508z" fill="#ffbe2c"/>
      <path d="m240.42 280.61 2.5254 3.4093 2.6516 0.88388 5.9346-0.12627 8.5863-1.5152 7.4499-2.7779-4.2932-1.1364-7.8287 1.5152-6.8185 0.37881-6.1872-0.50508z" fill="#ffbe2c"/>
      <path d="m240.42 280.61 2.5254 3.4093 2.6516 0.88388 5.9346-0.12627 8.5863-1.5152 7.4499-2.7779-4.2932-1.1364-7.8287 1.5152-6.8185 0.37881-6.1872-0.50508z" fill="#ffbe2c"/>
      <path d="m240.42 280.61 2.5254 3.4093 2.6516 0.88388 5.9346-0.12627 8.5863-1.5152 7.4499-2.7779-4.2932-1.1364-7.8287 1.5152-6.8185 0.37881-6.1872-0.50508z" fill="#ffbe2c"/>
      <path d="m240.42 280.61 2.5254 3.4093 2.6516 0.88388 5.9346-0.12627 8.5863-1.5152 7.4499-2.7779-4.2932-1.1364-7.8287 1.5152-6.8185 0.37881-6.1872-0.50508z" fill="#ffbe2c"/>
      <path d="m240.42 280.61 2.5254 3.4093 2.6516 0.88388 5.9346-0.12627 8.5863-1.5152 7.4499-2.7779-4.2932-1.1364-7.8287 1.5152-6.8185 0.37881-6.1872-0.50508z" fill="#ffbe2c"/>
      <path d="m240.42 280.61 2.5254 3.4093 2.6516 0.88388 5.9346-0.12627 8.5863-1.5152 7.4499-2.7779-4.2932-1.1364-7.8287 1.5152-6.8185 0.37881-6.1872-0.50508z" fill="#ffbe2c"/>
      <path d="m240.42 280.61 2.5254 3.4093 2.6516 0.88388 5.9346-0.12627 8.5863-1.5152 7.4499-2.7779-4.2932-1.1364-7.8287 1.5152-6.8185 0.37881-6.1872-0.50508z" fill="#ffbe2c"/>
      <path d="m240.42 280.61 2.5254 3.4093 2.6516 0.88388 5.9346-0.12627 8.5863-1.5152 7.4499-2.7779-4.2932-1.1364-7.8287 1.5152-6.8185 0.37881-6.1872-0.50508z" fill="#ffbe2c"/>
      <path d="m240.42 280.61 2.5254 3.4093 2.6516 0.88388 5.9346-0.12627 8.5863-1.5152 7.4499-2.7779-4.2932-1.1364-7.8287 1.5152-6.8185 0.37881-6.1872-0.50508z" fill="#ffbe2c"/>
      <path d="m240.42 280.61 2.5254 3.4093 2.6516 0.88388 5.9346-0.12627 8.5863-1.5152 7.4499-2.7779-4.2932-1.1364-7.8287 1.5152-6.8185 0.37881-6.1872-0.50508z" fill="#ffbe2c"/>
      <path d="m240.42 280.61 2.5254 3.4093 2.6516 0.88388 5.9346-0.12627 8.5863-1.5152 7.4499-2.7779-4.2932-1.1364-7.8287 1.5152-6.8185 0.37881-6.1872-0.50508z" fill="#ffbe2c"/>
      <path d="m240.42 280.61 2.5254 3.4093 2.6516 0.88388 5.9346-0.12627 8.5863-1.5152 7.4499-2.7779-4.2932-1.1364-7.8287 1.5152-6.8185 0.37881-6.1872-0.50508z" fill="#ffbe2c"/>
      <path d="m240.42 280.61 2.5254 3.4093 2.6516 0.88388 5.9346-0.12627 8.5863-1.5152 7.4499-2.7779-4.2932-1.1364-7.8287 1.5152-6.8185 0.37881-6.1872-0.50508z" fill="#ffbe2c"/>
      <path d="m240.42 280.61 2.5254 3.4093 2.6516 0.88388 5.9346-0.12627 8.5863-1.5152 7.4499-2.7779-4.2932-1.1364-7.8287 1.5152-6.8185 0.37881-6.1872-0.50508z" fill="#ffbe2c"/>
      <path d="m240.42 280.61 2.5254 3.4093 2.6516 0.88388 5.9346-0.12627 8.5863-1.5152 7.4499-2.7779-4.2932-1.1364-7.8287 1.5152-6.8185 0.37881-6.1872-0.50508z" fill="#ffbe2c"/>
      <path d="m240.42 280.61 2.5254 3.4093 2.6516 0.88388 5.9346-0.12627 8.5863-1.5152 7.4499-2.7779-4.2932-1.1364-7.8287 1.5152-6.8185 0.37881-6.1872-0.50508z" fill="#ffbe2c"/>
      <path d="m240.42 280.61 2.5254 3.4093 2.6516 0.88388 5.9346-0.12627 8.5863-1.5152 7.4499-2.7779-4.2932-1.1364-7.8287 1.5152-6.8185 0.37881-6.1872-0.50508z" fill="#ffbe2c"/>
      <path d="m240.42 280.61 2.5254 3.4093 2.6516 0.88388 5.9346-0.12627 8.5863-1.5152 7.4499-2.7779-4.2932-1.1364-7.8287 1.5152-6.8185 0.37881-6.1872-0.50508z" fill="#ffbe2c"/>
      <path d="m240.42 280.61 2.5254 3.4093 2.6516 0.88388 5.9346-0.12627 8.5863-1.5152 7.4499-2.7779-4.2932-1.1364-7.8287 1.5152-6.8185 0.37881-6.1872-0.50508z" fill="#ffbe2c"/>
      <g transform="translate(-40.361,-213.78)">
       <path d="m273.01 482.51-0.64818-4.4194 9.3338 5.5558 0.38891 4.2932z" fill="#cf4629"/>
       <path d="m272.55 478.03c-1.9499 1.85-2.7021 5.1794-3.8512 7.8918l1.2627 5.3033 3.1567-9.0914z" fill="#d56240"/>
       <path d="m269.96 491.22 6.0609 3.283 5.0508-4.2932 1.0102-2.2728-9.0914-5.5558z" fill="#bb3121"/>
      </g>
      <g transform="translate(-40.361,-213.78)">
       <path d="m273.01 482.51-0.64818-4.4194 9.3338 5.5558 0.38891 4.2932z" fill="#cf4629"/>
       <path d="m272.55 478.03c-1.9499 1.85-2.7021 5.1794-3.8512 7.8918l1.2627 5.3033 3.1567-9.0914z" fill="#d56240"/>
       <path d="m269.96 491.22 6.0609 3.283 5.0508-4.2932 1.0102-2.2728-9.0914-5.5558z" fill="#bb3121"/>
      </g>
      <g transform="translate(-40.361,-213.78)">
       <path d="m273.01 482.51-0.64818-4.4194 9.3338 5.5558 0.38891 4.2932z" fill="#cf4629"/>
       <path d="m272.55 478.03c-1.9499 1.85-2.7021 5.1794-3.8512 7.8918l1.2627 5.3033 3.1567-9.0914z" fill="#d56240"/>
       <path d="m269.96 491.22 6.0609 3.283 5.0508-4.2932 1.0102-2.2728-9.0914-5.5558z" fill="#bb3121"/>
      </g>
      <g transform="translate(-69.825,-213.78)">
       <path d="m273.01 482.51-0.64818-4.4194 9.3338 5.5558 0.38891 4.2932z" fill="#cf4629"/>
       <path d="m272.55 478.03c-1.9499 1.85-2.7021 5.1794-3.8512 7.8918l1.2627 5.3033 3.1567-9.0914z" fill="#d56240"/>
       <path d="m269.96 491.22 6.0609 3.283 5.0508-4.2932 1.0102-2.2728-9.0914-5.5558z" fill="#bb3121"/>
      </g>
      <g transform="translate(-96.253,-198.78)">
       <path d="m273.01 482.51-0.64818-4.4194 9.3338 5.5558 0.38891 4.2932z" fill="#cf4629"/>
       <path d="m272.55 478.03c-1.9499 1.85-2.7021 5.1794-3.8512 7.8918l1.2627 5.3033 3.1567-9.0914z" fill="#d56240"/>
       <path d="m269.96 491.22 6.0609 3.283 5.0508-4.2932 1.0102-2.2728-9.0914-5.5558z" fill="#bb3121"/>
      </g>
      <path d="m200.42 271.68 2.5254 3.4093 2.6516 0.88388 5.9346-0.12627 8.5863-1.5152 7.4499-2.7779-4.2932-1.1364-7.8287 1.5152-6.8185 0.37881-6.1872-0.50508z" fill="#ffbe2c"/>
      <path d="m240.42 280.61 2.5254 3.4093 2.6516 0.88388 5.9346-0.12627 8.5863-1.5152 7.4499-2.7779-4.2932-1.1364-7.8287 1.5152-6.8185 0.37881-6.1872-0.50508z" fill="#ffbe2c"/>
      <path d="m225.41 275.95 5.6342-0.37872 6.7284 1.5852 6.2705 2.3517 6.4817 3.809 2.0856 1.5577 6.0703 0.21452-5.1816-2.9909-6.5304-3.6926-7.511-3.9662-7.2809-2.2272-5.6721-0.18469-3.3048 1.3541 1.2973 2.4596z" fill="#ffbe2c"/>
      <path d="m176.69 298.62 2.4639-5.081 4.7119-5.0578 5.1507-4.2802 6.5211-3.7412 2.3867-1.0392 3.1953-5.1657-5.166 3.0176-6.4441 3.8413-7.1678 4.5572-5.5434 5.2194-2.972 4.8346-0.46214 3.5414 2.7793 0.0925z" fill="#ffbe2c"/>
      <path d="m262.09 290.8 0.82426 0.99526 4.2625 1.4822 2.4939 0.43745 0.91662-0.17106 0.54736-1.2102-0.10676-2.073 0.30987 1.7889 1.2397 1.4512 1.1236 1.2062 1.0406 0.54451 3.4184 0.73685 2.614-0.50831 1.7304-0.75382-2.3962-2.2409-6.6839-2.836-2.6034-0.76585-1.5075 0.21975-0.97598 0.92083-0.18862 0.6713-2.3712-3.1279-1.7897-1.3486-1.1012-0.34851-2.2566-0.58435-1.328-1.4758-1.7-0.77027-2.5414-0.40808-0.83225 1.3865 0.67913 2.828 0.99438 1.1277 2.4227 1.9076 2.0943 0.9224z" fill="#8c6000"/>
      <path d="m245.75 287.49-11.211-6.8803-4.7598-4.3476-4.0666-3.9037-2.0889-1.9817 2.2238 0.26261 2.1734 1.0238 0.90746 0.84563 1.5996 0.3574 1.9055-1.4132 0.77661-1.4462-0.30078-1.3081 1.3875 1.82 1.8396 0.84457 1.9766 0.98981 2.3351 0.32235 2.5565-0.49034 1.2226-0.27503 1.9344 1.4688 2.6441 1.3482 2.6595-0.14838 3.0952-0.55936 3.8718-2.0055-2.4421 3.3466-0.14312 2.0013 0.87453 1.9745 0.37804 1.5646 1.5091 3.4619 4.0501 4.4682 4.3488 3.9119 3.9811 3.9294-9.6349-4.7441-9.5906-3.3587z" fill="#aed311"/>
      <g transform="matrix(.72908 0 0 .72908 69.043 -63.915)">
       <path d="m273.01 482.51-0.64818-4.4194 9.3338 5.5558 0.38891 4.2932z" fill="#cf4629"/>
       <path d="m272.55 478.03c-1.9499 1.85-2.7021 5.1794-3.8512 7.8918l1.2627 5.3033 3.1567-9.0914z" fill="#d56240"/>
       <path d="m269.96 491.22 6.0609 3.283 5.0508-4.2932 1.0102-2.2728-9.0914-5.5558z" fill="#bb3121"/>
      </g>
     </g>
    </g>
   </g>
  </g>
 </g>
</svg>
